<svg width="360" height="260" viewBox="0 0 360 260" fill="none" xmlns="http://www.w3.org/2000/svg">
  <rect x="22" y="22" width="316" height="216" rx="28" stroke="#171717" stroke-opacity="0.16" stroke-width="1.5"/>
  <path d="M70 22H46a24 24 0 0 0-24 24v24M290 22h24a24 24 0 0 1 24 24v24M70 238H46a24 24 0 0 1-24-24v-24M290 238h24a24 24 0 0 0 24-24v-24" stroke="#C49E70" stroke-opacity="0.45" stroke-width="2" stroke-linecap="round"/>
  <circle cx="180" cy="130" r="38" stroke="#171717" stroke-opacity="0.1" stroke-width="1.5"/>
  <path d="M180 76v26M180 158v26M126 130h26M208 130h26" stroke="#171717" stroke-opacity="0.12" stroke-width="1.5" stroke-linecap="round"/>
</svg>
